<?xml version="1.0" encoding="utf-8"?>
<!-- Generator: Adobe Illustrator 21.0.0, SVG Export Plug-In . SVG Version: 6.00 Build 0)  -->
<svg version="1.1" id="Ebene_1" xmlns="http://www.w3.org/2000/svg" xmlns:xlink="http://www.w3.org/1999/xlink" x="0px" y="0px"
	 viewBox="0 0 357.4 49.1" style="enable-background:new 0 0 357.4 49.1;" xml:space="preserve">
<style type="text/css">
	.st0{fill-rule:evenodd;clip-rule:evenodd;fill:#010103;}
	.st1{fill:#E60005;}
</style>
<g>
	<path class="st0" d="M99.7,0v48.1h-5.6v-4.7H94c-0.9,2-2.4,3.4-4.4,4.3c-1.9,0.9-4.1,1.3-6.6,1.3c-2.7,0-4.9-0.5-6.9-1.5
		c-1.9-0.9-3.5-2.2-4.9-4c-1.3-1.7-2.3-3.6-3-5.9c-0.7-2.2-1-4.5-1-7c0-2.5,0.3-4.8,1-7c0.7-2.3,1.7-4.2,2.9-5.7
		c1.4-1.7,3-3,4.9-3.9c2-1,4.3-1.5,6.8-1.5c0.6,0,1.5,0.1,2.8,0.3c0.9,0.2,1.9,0.5,3,0.9c0.8,0.3,1.8,0.9,2.9,1.7
		c0.9,0.7,1.7,1.6,2.3,2.6h0.1V0H99.7z M83.5,17.6c-1.9,0-3.5,0.4-4.8,1.1c-1.3,0.8-2.4,1.8-3.2,3c-0.8,1.2-1.3,2.6-1.7,4.3
		c-0.4,1.7-0.5,3.4-0.5,5c0,1.5,0.2,3.1,0.7,4.8c0.4,1.5,1,2.9,1.9,4.1c0.9,1.3,2,2.2,3.3,2.9c1.3,0.7,2.8,1.1,4.7,1.1
		c2,0,3.6-0.4,4.8-1.1c1.4-0.8,2.5-1.8,3.2-3c0.8-1.2,1.5-2.6,1.9-4.3c0.4-1.7,0.5-3.3,0.5-4.8c0-1.7-0.2-3.3-0.6-4.9
		c-0.4-1.7-1-3.1-1.9-4.3c-0.8-1.2-2-2.1-3.4-2.8C87.1,17.9,85.4,17.6,83.5,17.6z M137.8,0v28.5l15.6-15.2h7.6l-13.6,12.6L162,48.1
		h-7.2l-11.7-18.2l-5.3,5v13.2h-5.6V0H137.8z M113.6,20.6c1.4-2.8,3.1-4.9,5-6.2c1.9-1.3,4.5-1.9,7.6-1.9v6.1
		c-2.2,0-4.1,0.3-5.8,0.9c-1.6,0.7-2.9,1.6-3.8,2.8c-1,1.3-1.7,2.7-2.1,4.5c-0.4,1.9-0.7,3.9-0.7,5.9v15.5h-5.6V13.3h5.3v7.3H113.6z
		 M302.3,17.7c1.7-1.8,3.6-3.1,5.6-3.9c2.1-0.9,4.5-1.4,7.1-1.4c2.9,0,5.5,0.6,7.6,1.8c2.2,1.1,4,2.7,5.4,4.6c1.4,1.9,2.4,4.1,3,6.5
		c0.7,2.4,0.9,5,0.7,7.8h-24.7c0.1,3.1,0.9,5.3,2.3,6.8c1.5,1.4,3.5,2.1,6.1,2.1c1.9,0,3.6-0.5,4.9-1.4c1.4-0.9,2.3-2,2.5-3.1h8.3
		c-1.3,4.2-3.4,7.2-6.1,9c-2.7,1.8-6,2.8-9.9,2.8c-2.8,0-5.2-0.4-7.3-1.4c-2.1-0.9-4-2.1-5.5-3.8c-1.5-1.7-2.7-3.6-3.4-5.8
		c-0.8-2.2-1.3-4.6-1.3-7.4c0-2.4,0.4-4.9,1.3-7.3C299.6,21.2,300.8,19.3,302.3,17.7z M307.4,24.6c-0.2,0.8-0.4,1.5-0.5,2.3h15.3
		c-0.4-2.4-1.2-4.2-2.3-5.5c-1.1-1.3-2.9-1.9-5.2-1.9c-1.5,0-2.7,0.3-3.7,0.8c-1,0.5-1.8,1.2-2.4,1.9
		C308,23.1,307.6,23.9,307.4,24.6z M281.3,37.1l7.2-23.8h9.3l-11.6,34.8h-10.5L264,13.3h9.9l7.2,23.8H281.3z M355.3,12.4
		c0.6,0,1.3,0.1,2.1,0.3v8.8l-3.4-0.3c-1.6,0-3.1,0.3-4.4,0.9c-1.1,0.6-2.1,1.4-2.9,2.4c-0.7,1-1.2,2.2-1.6,3.6
		c-0.3,1.6-0.5,3-0.5,4.3v15.7h-9.4V13.3h8.9v6.4h0.1c0.4-0.9,1-1.9,1.8-2.9c0.7-0.8,1.6-1.6,2.6-2.4c0.8-0.6,1.9-1.1,3.2-1.6
		C353.1,12.5,354.2,12.4,355.3,12.4z M186.8,23.4c-0.1-1.8-0.8-3-2.1-3.7c-0.4-0.3-0.9-0.4-1.5-0.5c-0.9-0.3-1.9-0.4-2.9-0.4
		l-1.7,0.1c-0.7,0.1-1.2,0.2-1.7,0.3c-0.4,0.2-0.9,0.6-1.3,1c-0.4,0.5-0.5,1-0.5,1.7c0,0.9,0.3,1.6,0.9,2.1c0.7,0.6,1.5,1,2.5,1.4
		c0.4,0.1,0.8,0.3,1.3,0.4c0.6,0.1,1.3,0.3,2.1,0.5l8,2c1.3,0.4,2.4,1.1,3.4,1.8c1,0.7,1.8,1.6,2.5,2.8c0.6,1,0.9,2.3,0.9,4
		c0,2.3-0.4,4.2-1.3,5.8c-0.9,1.5-2.1,2.8-3.6,3.7c-1.5,0.9-3.1,1.6-5,2c-1.1,0.3-2.3,0.5-3.5,0.5c-0.8,0-1.5,0.1-2.3,0.1
		c-0.4,0-0.8,0-1.3,0c-1.5-0.1-3-0.3-4.6-0.6c-1.9-0.4-3.6-1.1-5-2c-1.5-1-2.8-2.3-3.6-3.8c-0.9-1.4-1.5-3.4-1.6-5.8h8.9
		c0,1,0.2,1.9,0.7,2.7c0.4,0.8,0.9,1.4,1.6,1.8c0.7,0.5,1.4,0.8,2.3,1c0.4,0.1,0.8,0.2,1.3,0.3c0.4,0,0.8,0.1,1.3,0.1l2.1-0.2h0.1
		c0.7-0.1,1.3-0.4,1.9-0.7c0.5-0.3,1-0.8,1.5-1.4c0.4-0.5,0.6-1.3,0.6-2.2c0-0.7-0.2-1.3-0.7-1.8c-0.5-0.5-1.2-1-2.1-1.4
		c-0.4-0.1-0.8-0.3-1.2-0.5c-0.6-0.2-1.3-0.4-2.2-0.6l-4.5-1.1c-0.9-0.2-2.2-0.5-4-1.1c-1.1-0.3-2.3-0.9-3.5-1.7
		c-1-0.6-1.8-1.5-2.5-2.6c-0.6-1.1-0.9-2.4-0.9-3.9c0-2.1,0.4-3.9,1.3-5.4c0.9-1.5,2-2.6,3.4-3.4c1.5-0.9,3.1-1.4,4.8-1.8
		c1.6-0.3,3.1-0.5,4.6-0.5c0.3,0,0.6,0,0.9,0c0.9,0,1.8,0,2.7,0.1c0.9,0.1,1.9,0.2,2.8,0.4c1.8,0.4,3.4,1,4.6,1.8
		c1.4,0.9,2.5,2,3.4,3.4c0.9,1.4,1.5,3.1,1.6,5.3H186.8z M210.3,24.6c-0.2,0.8-0.4,1.5-0.5,2.3h15.3c-0.4-2.4-1.2-4.2-2.3-5.5
		c-1.1-1.3-2.9-1.9-5.2-1.9c-1.5,0-2.7,0.3-3.7,0.8c-1,0.5-1.8,1.2-2.4,1.9C210.9,23.1,210.5,23.9,210.3,24.6z M210.9,13.8
		c2.1-0.9,4.5-1.4,7.1-1.4c2.9,0,5.5,0.6,7.6,1.8c2.2,1.1,4,2.7,5.4,4.6c1.4,1.9,2.4,4.1,3,6.5c0.7,2.4,0.9,5,0.7,7.8h-24.7
		c0.1,3.1,0.9,5.3,2.3,6.8c1.5,1.4,3.5,2.1,6.1,2.1c1.9,0,3.6-0.5,4.9-1.4c1.4-0.9,2.3-2,2.5-3.1h8.3c-1.3,4.2-3.4,7.2-6.1,9
		c-2.7,1.8-6,2.8-9.9,2.8c-2.8,0-5.2-0.4-7.3-1.4c-2.1-0.9-4-2.1-5.5-3.8c-1.5-1.7-2.7-3.6-3.4-5.8c-0.8-2.2-1.3-4.6-1.3-7.4
		c0-2.4,0.4-4.9,1.3-7.3c0.9-2.2,2.1-4.2,3.6-5.7C207,15.9,208.9,14.6,210.9,13.8z M250,28.1c-0.3,1.6-0.5,3-0.5,4.3v15.7h-9.4V13.3
		h8.9v6.4h0.1c0.4-0.9,1-1.9,1.8-2.9c0.7-0.8,1.6-1.6,2.6-2.4c0.8-0.6,1.9-1.1,3.2-1.6c1.2-0.4,2.3-0.5,3.4-0.5
		c0.6,0,1.3,0.1,2.1,0.3v8.8l-3.4-0.3c-1.6,0-3.1,0.3-4.4,0.9c-1.1,0.6-2.1,1.4-2.8,2.4C250.9,25.5,250.4,26.7,250,28.1z"/>
	<g>
		<rect x="51" y="25.5" class="st1" width="5.7" height="5.7"/>
		<rect x="51" y="34" class="st1" width="5.7" height="5.7"/>
		<rect x="51" y="42.5" class="st1" width="5.7" height="5.7"/>
		<rect x="51" y="17" class="st1" width="5.7" height="5.7"/>
		<rect x="42.5" y="8.5" class="st1" width="5.7" height="5.7"/>
		<rect x="42.5" y="25.5" class="st1" width="5.7" height="5.7"/>
		<rect x="42.5" y="34" class="st1" width="5.7" height="5.7"/>
		<rect x="42.5" y="42.5" class="st1" width="5.7" height="5.7"/>
		<rect x="42.5" y="17" class="st1" width="5.7" height="5.7"/>
		<rect x="34" y="25.5" class="st1" width="5.7" height="5.7"/>
		<rect x="34" y="34" class="st1" width="5.7" height="5.7"/>
		<rect x="34" y="42.5" class="st1" width="5.7" height="5.7"/>
		<rect x="25.5" class="st1" width="5.7" height="5.7"/>
		<rect x="25.5" y="8.5" class="st1" width="5.7" height="5.7"/>
		<rect x="25.5" y="25.5" class="st1" width="5.7" height="5.7"/>
		<rect x="25.5" y="34" class="st1" width="5.7" height="5.7"/>
		<rect x="25.5" y="42.5" class="st1" width="5.7" height="5.7"/>
		<rect x="25.5" y="17" class="st1" width="5.7" height="5.7"/>
		<rect x="17" y="8.5" class="st1" width="5.7" height="5.7"/>
		<rect x="17" y="25.5" class="st1" width="5.7" height="5.7"/>
		<rect x="17" y="34" class="st1" width="5.7" height="5.7"/>
		<rect x="17" y="42.5" class="st1" width="5.7" height="5.7"/>
		<rect x="17" y="17" class="st1" width="5.7" height="5.7"/>
		<rect x="8.5" y="25.5" class="st1" width="5.7" height="5.7"/>
		<rect x="8.5" y="34" class="st1" width="5.7" height="5.7"/>
		<rect x="8.5" y="42.5" class="st1" width="5.7" height="5.7"/>
		<rect x="8.5" y="17" class="st1" width="5.7" height="5.7"/>
		<rect y="42.5" class="st1" width="5.7" height="5.7"/>
		<rect y="34" class="st1" width="5.7" height="5.7"/>
		<rect y="17" class="st1" width="5.7" height="5.7"/>
		<rect y="8.5" class="st1" width="5.7" height="5.7"/>
		<rect y="25.5" class="st1" width="5.7" height="5.7"/>
	</g>
</g>
</svg>
